PathFileType	4	(X/Y/Z)	/Users/niels/Desktop/University/Third Semester/Perception and Action/Exam/Gymnastics Motion Tracking/Code for Gym Tracking/Analyzed Data/Webcam_Backflip/id16_1_trajectory_Sports2D/id16_1_trajectory_Sports2D_px_person00.trc
DataRate	CameraRate	NumFrames	NumMarkers	Units	OrigDataRate	OrigDataStartFrame	OrigNumFrames
29.7	29.7	9	22	m	29.7	33	100
Frame#	Time	Hip			RHip			RKnee			RAnkle			RBigToe			RSmallToe			RHeel			LHip			LKnee			LAnkle			LBigToe			LSmallToe			LHeel			Neck			Head			Nose			RShoulder			RElbow			RWrist			LShoulder			LElbow			LWrist		
		X1	Y1	Z1	X2	Y2	Z2	X3	Y3	Z3	X4	Y4	Z4	X5	Y5	Z5	X6	Y6	Z6	X7	Y7	Z7	X8	Y8	Z8	X9	Y9	Z9	X10	Y10	Z10	X11	Y11	Z11	X12	Y12	Z12	X13	Y13	Z13	X14	Y14	Z14	X15	Y15	Z15	X16	Y16	Z16	X17	Y17	Z17	X18	Y18	Z18	X19	Y19	Z19	X20	Y20	Z20	X21	Y21	Z21	X22	Y22	Z22
33	1.1111111111111112	0.9175656934415701	-1.0794074096054436	0.0	0.7813225626434708	-1.0847816885403945	0.0	0.5600103542033938	-1.0476306045300943	0.0	0.81439306640625	-1.04120849609375	0.0	0.6857673339843746	-0.24904003906249994	0.0			0.0			0.0	1.0478558824022395	-1.0878325314152495	0.0	0.5943402488466749	-1.0288293106109963	0.0			0.0			0.0			0.0			0.0	0.8802352061219443	-0.6576657465252497	0.0	0.8778172852910582	-0.390280465229997	0.0	0.9064445793639702	-0.5266310577164536	0.0	0.7024072922225664	-0.7324720608989259	0.0	0.5816827525027257	-0.5024740131844322	0.0	0.768753680899953	-0.17890137934008774	0.0	1.0613998926734272	-0.6902957496373743	0.0	1.2454128416571928	-0.4659281837739915	0.0	1.4144940823288217	-0.19065244083246466	0.0
34	1.1447811447811447	0.9187825432355717	-1.0782904245870188	0.0	0.7909025726749869	-1.0833916228395304	0.0	0.5600158606040347	-1.047630696592714	0.0	0.81439306640625	-1.04120849609375	0.0	0.6857673339843746	-0.24904003906249994	0.0			0.0			0.0	1.045257117977489	-1.0875012036324674	0.0	0.5915622481915281	-1.0285921804688911	0.0			0.0			0.0			0.0			0.0	0.8900727343305948	-0.6611621942455788	0.0	0.8879310910179006	-0.40497325217338703	0.0	0.9106754617710019	-0.5335366981044568	0.0	0.7149825931408154	-0.7358753045764859	0.0	0.5841744688481171	-0.52000030386627	0.0	0.7219598942749926	-0.19258880051036326	0.0	1.0638837233631484	-0.6922725305022435	0.0	1.227193990792245	-0.47059733129291015	0.0	1.3595216040239537	-0.18646776164253667	0.0
35	1.1784511784511784	0.9194030102405516	-1.079663867940954	0.0	0.7981334239711753	-1.083539800960123	0.0	0.5600456418742941	-1.0476316643260757	0.0	0.81439306640625	-1.04120849609375	0.0	0.6857673339843746	-0.24904003906249994	0.0			0.0			0.0	1.0415674410423645	-1.0884325506733976	0.0	0.5992440080635144	-1.0287911257221758	0.0			0.0			0.0			0.0			0.0	0.8977837037835873	-0.661079594194231	0.0	0.8987259400511846	-0.41503529556336094	0.0	0.9166012116718258	-0.5362292830488955	0.0	0.7261963541320231	-0.7354845861929079	0.0	0.5870417122351808	-0.5327228329551467	0.0	0.6711237133390959	-0.2032033296793424	0.0	1.0644625313185643	-0.6908910170146371	0.0	1.2090272516287728	-0.4737256557546425	0.0	1.3005564303930148	-0.1862028141904154	0.0
36	1.2121212121212122	0.9195157451389551	-1.081699537527114	0.0	0.8033376212689317	-1.0848870886262956	0.0	0.560114762271933	-1.047634120803349	0.0	0.81439306640625	-1.04120849609375	0.0	0.6857673339843746	-0.24904003906249994	0.0			0.0			0.0	1.0366462623343957	-1.0900791245268602	0.0	0.6272431787724595	-1.0299164137293557	0.0			0.0			0.0			0.0			0.0	0.9030589864723138	-0.6587961026997973	0.0	0.9086969436086257	-0.4212958472292449	0.0	0.9226928251078761	-0.5363486379613056	0.0	0.7359254750792088	-0.7319237540722289	0.0	0.5907430702621875	-0.54123027909292	0.0	0.6210811557129052	-0.21331702975888034	0.0	1.0632304669908763	-0.686588925848	0.0	1.192145595607777	-0.4759016753549405	0.0	1.2408586493866505	-0.1921874690428471	0.0
37	1.2457912457912457	0.9189539097261701	-1.0820561962122792	0.0	0.8071254218702251	-1.0868211323252048	0.0	0.5602340011430925	-1.0476385780832516	0.0	0.81439306640625	-1.04120849609375	0.0	0.6857673339843746	-0.24904003906249994	0.0			0.0			0.0	1.030570622273117	-1.0915596936350016	0.0	0.6861594873521495	-1.0325502140917528	0.0			0.0			0.0			0.0			0.0	0.9062119330719413	-0.6566852254242272	0.0	0.9169329042820541	-0.42585098052679804	0.0	0.9280854302598408	-0.536506204152912	0.0	0.7442265527840878	-0.7269987252265923	0.0	0.5956841751914899	-0.5471349799487256	0.0	0.5766730315344231	-0.2254009604780575	0.0	1.0605288377828468	-0.6812770512383372	0.0	1.1766516508690497	-0.4785593739533637	0.0	1.183714667566988	-0.205194054054928	0.0
38	1.2794612794612794	0.9179257261812837	-1.080108527346456	0.0	0.8101822675194211	-1.0887978597624337	0.0	0.5603967120132805	-1.0476449688209852	0.0	0.81439306640625	-1.04120849609375	0.0	0.6857673339843746	-0.24904003906249994	0.0			0.0			0.0	1.0242685151557143	-1.0922625785663675	0.0	0.781461980028299	-1.0371168011963485	0.0			0.0			0.0			0.0			0.0	0.9078876292777035	-0.6567343817542521	0.0	0.9228910125683075	-0.43076985374752813	0.0	0.9322906087977361	-0.5388331242384075	0.0	0.7512136450046839	-0.7230685108259605	0.0	0.6021380097059551	-0.552514939661162	0.0	0.5425224305638529	-0.24095427483304363	0.0	1.0569641400794199	-0.6775324691178248	0.0	1.1619823302325463	-0.4830478422330355	0.0	1.1322071067267474	-0.2240404757708058	0.0
39	1.3131313131313131	0.9171052841272264	-1.0769971634445563	0.0	0.8131238365422907	-1.0901562852696098	0.0	0.5605583792193292	-1.0476518661022387	0.0	0.81439306640625	-1.04120849609375	0.0	0.6857673339843746	-0.24904003906249994	0.0			0.0			0.0	1.0190261765977946	-1.0919170387588901	0.0	0.9026160226077251	-1.0433806327154878	0.0			0.0			0.0			0.0			0.0	0.9087558578415524	-0.6595138047427272	0.0	0.9263445072166892	-0.4371351608960803	0.0	0.9349310280422461	-0.5439487001070425	0.0	0.7570674447708453	-0.7219829044924422	0.0	0.610045659310851	-0.5592220576082244	0.0	0.5224555358129745	-0.25998369838305224	0.0	1.0532745166991562	-0.677243155498712	0.0	1.147712202215727	-0.4897954532169204	0.0	1.088928531341218	-0.24577983269090067	0.0
40	1.3468013468013469	0.9170049333504537	-1.0735550456235612	0.0	0.8163713704175363	-1.0896511521262187	0.0	0.5606118470216043	-1.0476554821741395	0.0	0.81439306640625	-1.04120849609375	0.0	0.6857673339843746	-0.24904003906249994	0.0			0.0			0.0	1.0154701667329264	-1.0899246067728559	0.0	1.0163174038088756	-1.0500823842284686	0.0			0.0			0.0			0.0			0.0	0.9093307788049726	-0.663978618726656	0.0	0.9274802275598146	-0.44474726903160317	0.0	0.9357560328360612	-0.5507907986820624	0.0	0.7621252520012884	-0.7240431684506162	0.0	0.6188699216823418	-0.5680789843161903	0.0	0.5185894130372567	-0.28105917484468074	0.0	1.050051143021833	-0.6805080507731331	0.0	1.1341156872715465	-0.498008826790758	0.0	1.0558552528853717	-0.2665910495700148	0.0
41	1.3804713804713804	0.9175901001810127	-1.0692616942591096	0.0	0.820111996384449	-1.0856648268642601	0.0	0.5603682565146915	-1.0476487860237667	0.0	0.81439306640625	-1.04120849609375	0.0	0.6857673339843746	-0.24904003906249994	0.0			0.0			0.0	1.0132789343819373	-1.0851907755458317	0.0	1.0843024204480385	-1.0555622495194523	0.0			0.0			0.0			0.0			0.0	0.909932365375664	-0.6680993279425178	0.0	0.9267801979983654	-0.4523492882309586	0.0	0.9347660793799643	-0.5573669918185785	0.0	0.766862729795016	-0.7278056220444887	0.0	0.6277906951470485	-0.5783690649384182	0.0	0.5306253537134202	-0.301903131194911	0.0	1.0475496062166088	-0.6857042791307463	0.0	1.1221423612576091	-0.5059731193722438	0.0	1.0344248953721462	-0.28302969857444943	0.0
